<svg width="27" height="25" viewBox="0 0 27 25" fill="none" xmlns="http://www.w3.org/2000/svg">
<path d="M13.0129 22.9167C11.5971 22.9167 10.2438 22.6458 8.95287 22.1042C7.71751 21.5764 6.61748 20.8299 5.65278 19.8646C4.68809 18.8993 3.94201 17.7986 3.41455 16.5625C2.87321 15.2708 2.60254 13.9167 2.60254 12.5C2.60254 11.0833 2.87321 9.72916 3.41455 8.4375C3.94201 7.20139 4.68809 6.10069 5.65278 5.13541C6.61748 4.17014 7.71751 3.42361 8.95287 2.89583C10.2438 2.35416 11.5971 2.08333 13.0129 2.08333C14.4287 2.08333 15.7821 2.35416 17.073 2.89583C18.3083 3.42361 19.4084 4.17014 20.3731 5.13541C21.3378 6.10069 22.0838 7.20139 22.6113 8.4375C23.1526 9.72916 23.4233 11.0833 23.4233 12.5C23.4233 13.9167 23.1526 15.2708 22.6113 16.5625C22.0838 17.7986 21.3378 18.8993 20.3731 19.8646C19.4084 20.8299 18.3083 21.5764 17.073 22.1042C15.7821 22.6458 14.4287 22.9167 13.0129 22.9167ZM13.0129 20.8333C14.5259 20.8333 15.9278 20.4514 17.2187 19.6875C18.468 18.9514 19.4604 17.9583 20.1961 16.7083C20.9595 15.4167 21.3412 14.0139 21.3412 12.5C21.3412 10.9861 20.9595 9.58333 20.1961 8.29166C19.4604 7.04166 18.468 6.04861 17.2187 5.3125C15.9278 4.54861 14.5259 4.16666 13.0129 4.16666C11.4999 4.16666 10.098 4.54861 8.80713 5.3125C7.55788 6.04861 6.56543 7.04166 5.82976 8.29166C5.06633 9.58333 4.68462 10.9861 4.68462 12.5C4.68462 14.0139 5.06633 15.4167 5.82976 16.7083C6.56543 17.9583 7.55788 18.9514 8.80713 19.6875C10.098 20.4514 11.4999 20.8333 13.0129 20.8333ZM14.054 12.5H18.2181V14.5833H11.9719V7.29166H14.054V12.5Z" fill="white"/>
</svg>
