<svg width="64" height="64" viewBox="0 0 64 64" fill="none" xmlns="http://www.w3.org/2000/svg">
<path d="M0 32C0 14.3269 14.3269 0 32 0C49.6731 0 64 14.3269 64 32C64 49.6731 49.6731 64 32 64C14.3269 64 0 49.6731 0 32Z" fill="#AF3322" fill-opacity="0.1"/>
<path d="M36.82 36.0601L37 36.2401L37.18 36.0601C37.46 35.7668 37.7933 35.5701 38.18 35.4701C38.5666 35.3701 38.9533 35.3701 39.34 35.4701C39.7266 35.5701 40.0666 35.7668 40.36 36.0601C40.6533 36.3534 40.85 36.6934 40.95 37.0801C41.05 37.4668 41.05 37.8501 40.95 38.2301C40.85 38.6101 40.6533 38.9468 40.36 39.2401L37 42.6001L33.64 39.2401C33.3466 38.9468 33.15 38.6101 33.05 38.2301C32.95 37.8501 32.95 37.4668 33.05 37.0801C33.15 36.6934 33.3466 36.3534 33.64 36.0601C33.9333 35.7668 34.2733 35.5701 34.66 35.4701C35.0466 35.3701 35.4333 35.3701 35.82 35.4701C36.2066 35.5701 36.54 35.7668 36.82 36.0601ZM30.98 34.4001V36.4001C29.9 36.4001 28.8933 36.6734 27.96 37.2201C27.0533 37.7534 26.3333 38.4734 25.8 39.3801C25.2533 40.3134 24.98 41.3201 24.98 42.4001H22.98C22.98 40.9734 23.3333 39.6468 24.04 38.4201C24.72 37.2334 25.6466 36.2868 26.82 35.5801C28.02 34.8334 29.3266 34.4401 30.74 34.4001H30.98ZM30.98 21.4001C32.0733 21.4001 33.0866 21.6734 34.02 22.2201C34.9133 22.7534 35.6266 23.4734 36.16 24.3801C36.7066 25.3001 36.98 26.3001 36.98 27.3801C36.98 28.4601 36.72 29.4534 36.2 30.3601C35.6933 31.2534 34.9966 31.9734 34.11 32.5201C33.2233 33.0668 32.2533 33.3601 31.2 33.4001H30.98C29.9 33.4001 28.8933 33.1268 27.96 32.5801C27.0533 32.0468 26.3333 31.3268 25.8 30.4201C25.2533 29.5001 24.98 28.5001 24.98 27.4201C24.98 26.3401 25.24 25.3468 25.76 24.4401C26.2666 23.5468 26.9633 22.8268 27.85 22.2801C28.7366 21.7334 29.7066 21.4401 30.76 21.4001H30.98ZM30.98 23.4001C30.26 23.4001 29.5933 23.5801 28.98 23.9401C28.3666 24.3001 27.88 24.7868 27.52 25.4001C27.16 26.0134 26.98 26.6801 26.98 27.4001C26.98 28.1201 27.16 28.7868 27.52 29.4001C27.88 30.0134 28.3666 30.5001 28.98 30.8601C29.5933 31.2201 30.26 31.4001 30.98 31.4001C31.7 31.4001 32.3666 31.2201 32.98 30.8601C33.5933 30.5001 34.08 30.0134 34.44 29.4001C34.8 28.7868 34.98 28.1201 34.98 27.4001C34.98 26.6801 34.8 26.0134 34.44 25.4001C34.08 24.7868 33.5933 24.3001 32.98 23.9401C32.3666 23.5801 31.7 23.4001 30.98 23.4001Z" fill="#AF3322"/>
</svg>
