<svg width="64" height="64" viewBox="0 0 64 64" fill="none" xmlns="http://www.w3.org/2000/svg">
<path d="M0 32C0 14.3269 14.3269 0 32 0C49.6731 0 64 14.3269 64 32C64 49.6731 49.6731 64 32 64C14.3269 64 0 49.6731 0 32Z" fill="#AF3322" fill-opacity="0.1"/>
<path d="M31 33.54V23H39V25H33V37C33 37.72 32.82 38.3867 32.46 39C32.1 39.6133 31.6133 40.1 31 40.46C30.3867 40.82 29.72 41 29 41C28.28 41 27.6133 40.82 27 40.46C26.3867 40.1 25.9 39.6133 25.54 39C25.18 38.3867 25 37.72 25 37C25 36.28 25.18 35.6133 25.54 35C25.9 34.3867 26.3867 33.9 27 33.54C27.6133 33.18 28.28 33 29 33C29.72 33 30.3867 33.18 31 33.54ZM29 39C29.36 39 29.6933 38.91 30 38.73C30.3067 38.55 30.55 38.3067 30.73 38C30.91 37.6933 31 37.36 31 37C31 36.64 30.91 36.3067 30.73 36C30.55 35.6933 30.3067 35.45 30 35.27C29.6933 35.09 29.36 35 29 35C28.64 35 28.3067 35.09 28 35.27C27.6933 35.45 27.45 35.6933 27.27 36C27.09 36.3067 27 36.64 27 37C27 37.36 27.09 37.6933 27.27 38C27.45 38.3067 27.6933 38.55 28 38.73C28.3067 38.91 28.64 39 29 39Z" fill="#AF3322"/>
</svg>
