<svg width="31" height="22" viewBox="0 0 31 22" fill="none" xmlns="http://www.w3.org/2000/svg">
<path d="M11.3886 20.0562C10.1495 20.0562 8.96511 19.8192 7.83536 19.3451C6.75421 18.8832 5.79149 18.2299 4.94722 17.3851C4.10295 16.5403 3.45 15.577 2.98839 14.4952C2.51462 13.3647 2.27774 12.1796 2.27774 10.9398C2.27774 9.69992 2.51462 8.51478 2.98839 7.38434C3.45 6.30252 4.10295 5.33921 4.94722 4.49442C5.79149 3.64963 6.75421 2.99628 7.83536 2.53438C8.96511 2.06032 10.1495 1.82329 11.3886 1.82329C12.6277 1.82329 13.8121 2.06032 14.9418 2.53438C16.023 2.99628 16.9857 3.64963 17.83 4.49442C18.6742 5.33921 19.3272 6.30252 19.7888 7.38434C20.2626 8.51478 20.4995 9.69992 20.4995 10.9398C20.4995 12.1796 20.2626 13.3647 19.7888 14.4952C19.3272 15.577 18.6742 16.5403 17.83 17.3851C16.9857 18.2299 16.023 18.8832 14.9418 19.3451C13.8121 19.8192 12.6277 20.0562 11.3886 20.0562ZM11.3886 18.2329C12.7127 18.2329 13.9396 17.8987 15.0694 17.2301C16.1627 16.5859 17.0313 15.7168 17.6751 14.6228C18.3432 13.4924 18.6773 12.2647 18.6773 10.9398C18.6773 9.61483 18.3432 8.38715 17.6751 7.25671C17.0313 6.16273 16.1627 5.29363 15.0694 4.6494C13.9396 3.98086 12.7127 3.64659 11.3886 3.64659C10.0645 3.64659 8.83756 3.98086 7.70781 4.6494C6.61451 5.29363 5.74594 6.16273 5.10211 7.25671C4.43398 8.38715 4.09991 9.61483 4.09991 10.9398C4.09991 12.2647 4.43398 13.4924 5.10211 14.6228C5.74594 15.7168 6.61451 16.5859 7.70781 17.2301C8.83756 17.8987 10.0645 18.2329 11.3886 18.2329ZM12.2997 10.9398H15.944V12.7631H10.4775V6.38153H12.2997V10.9398Z" fill="#AF3322"/>
</svg>
