<svg width="22" height="22" viewBox="0 0 22 22" fill="none" xmlns="http://www.w3.org/2000/svg">
<path d="M11 22C17.0751 22 22 17.0751 22 11C22 4.92487 17.0751 0 11 0C4.92487 0 0 4.92487 0 11C0 17.0751 4.92487 22 11 22Z" fill="white"/>
<path d="M11 19.6977C15.8036 19.6977 19.6977 15.8036 19.6977 11C19.6977 6.19641 15.8036 2.30233 11 2.30233C6.19641 2.30233 2.30233 6.19641 2.30233 11C2.30233 15.8036 6.19641 19.6977 11 19.6977Z" fill="#AF3322"/>
<path d="M14.0698 14.8372C13.969 14.8373 13.8691 14.8175 13.776 14.7789C13.6829 14.7404 13.5983 14.6837 13.5272 14.6124L10.4574 11.5426C10.3135 11.3987 10.2326 11.2035 10.2326 11V5.88372C10.2326 5.68018 10.3134 5.48498 10.4573 5.34106C10.6013 5.19713 10.7965 5.11628 11 5.11628C11.2035 5.11628 11.3987 5.19713 11.5427 5.34106C11.6866 5.48498 11.7674 5.68018 11.7674 5.88372V10.6822L14.6124 13.5272C14.7197 13.6345 14.7927 13.7712 14.8223 13.9201C14.852 14.0689 14.8368 14.2232 14.7787 14.3634C14.7206 14.5037 14.6223 14.6235 14.4961 14.7078C14.3699 14.7922 14.2215 14.8372 14.0698 14.8372Z" fill="white"/>
</svg>
