<svg width="64" height="64" viewBox="0 0 64 64" fill="none" xmlns="http://www.w3.org/2000/svg">
<path d="M0 32C0 14.3269 14.3269 0 32 0C49.6731 0 64 14.3269 64 32C64 49.6731 49.6731 64 32 64C14.3269 64 0 49.6731 0 32Z" fill="#AF3322" fill-opacity="0.1"/>
<path d="M41 22V42H39V35H35V28C35 26.92 35.2733 25.9133 35.82 24.98C36.3533 24.0733 37.0733 23.3533 37.98 22.82C38.9133 22.2733 39.92 22 41 22ZM39 24.52C38.48 24.8133 38.04 25.2267 37.68 25.76C37.2267 26.4267 37 27.1733 37 28V33H39V24.52ZM29 33.9V42H27V33.9C26.24 33.7533 25.5567 33.4433 24.95 32.97C24.3433 32.4967 23.8667 31.9133 23.52 31.22C23.1733 30.5267 23 29.7867 23 29V23H25V30H27V23H29V30H31V23H33V29C33 29.7867 32.8267 30.5267 32.48 31.22C32.1333 31.9133 31.6567 32.4967 31.05 32.97C30.4433 33.4433 29.76 33.7533 29 33.9Z" fill="#AF3322"/>
</svg>
