<svg width="27" height="25" viewBox="0 0 27 25" fill="none" xmlns="http://www.w3.org/2000/svg">
<path d="M9.88981 2.08333V4.16666H16.136V2.08333H18.2181V4.16666H22.3823C22.6738 4.16666 22.9201 4.26736 23.1214 4.46875C23.3227 4.67014 23.4233 4.91666 23.4233 5.20833V21.875C23.4233 22.1667 23.3227 22.4132 23.1214 22.6146C22.9201 22.816 22.6738 22.9167 22.3823 22.9167H3.64358C3.35209 22.9167 3.10571 22.816 2.90444 22.6146C2.70317 22.4132 2.60254 22.1667 2.60254 21.875V5.20833C2.60254 4.91666 2.70317 4.67014 2.90444 4.46875C3.10571 4.26736 3.35209 4.16666 3.64358 4.16666H7.80773V2.08333H9.88981ZM21.3412 12.5H4.68462V20.8333H21.3412V12.5ZM7.80773 6.25H4.68462V10.4167H21.3412V6.25H18.2181V8.33333H16.136V6.25H9.88981V8.33333H7.80773V6.25Z" fill="white"/>
</svg>
