<svg width="34" height="48" viewBox="0 0 34 48" fill="none" xmlns="http://www.w3.org/2000/svg">
<path d="M16.992 13.3332C18.5213 13.3332 19.9884 13.3687 21.3933 13.4398L22.0602 13.4665C24.4076 13.5732 25.9903 13.7421 26.8083 13.9732C27.4485 14.1509 27.9998 14.4798 28.4622 14.9598C28.9246 15.4398 29.2358 16.0087 29.3958 16.6665C29.627 17.5554 29.7959 18.8798 29.9026 20.6398C29.956 21.6709 29.9916 22.7198 30.0093 23.7865V24.2132C29.9916 25.2798 29.956 26.3287 29.9026 27.3598C29.7959 29.1198 29.627 30.4443 29.3958 31.3332C29.2358 31.9909 28.9246 32.5598 28.4622 33.0398C27.9998 33.5198 27.4485 33.8487 26.8083 34.0265C25.9903 34.2576 24.4076 34.4265 22.0602 34.5332L21.3933 34.5598C19.9884 34.6132 18.5213 34.6487 16.992 34.6665H16.3518C14.6979 34.6487 13.1241 34.6132 11.6303 34.5598C9.08726 34.4532 7.38895 34.2754 6.53535 34.0265C5.89515 33.8487 5.34387 33.5198 4.8815 33.0398C4.41913 32.5598 4.10793 31.9909 3.94788 31.3332C3.71669 30.4443 3.54775 29.1198 3.44105 27.3598C3.3877 26.3287 3.35213 25.2798 3.33435 24.2132V23.7865C3.35213 22.7198 3.3877 21.6709 3.44105 20.6398C3.54775 18.8798 3.71669 17.5554 3.94788 16.6665C4.10793 16.0087 4.41913 15.4398 4.8815 14.9598C5.34387 14.4798 5.89515 14.1509 6.53535 13.9732C7.38895 13.7243 9.08726 13.5465 11.6303 13.4398C13.1063 13.3865 14.6801 13.3509 16.3518 13.3332H16.992ZM14.0043 19.3332V28.6665L22.0068 23.9998L14.0043 19.3332Z" fill="white"/>
</svg>
