<svg width="64" height="52" viewBox="0 0 64 52" fill="none" xmlns="http://www.w3.org/2000/svg">
<path d="M0 28C0 14.7452 10.7452 4 24 4C37.2548 4 48 14.7452 48 28C48 41.2548 37.2548 52 24 52C10.7452 52 0 41.2548 0 28Z" fill="#AF3322" fill-opacity="0.1"/>
<path d="M33 32.42V35.96C33 36.2133 32.91 36.4367 32.73 36.63C32.55 36.8233 32.3333 36.9333 32.08 36.96C31.64 36.9867 31.28 37 31 37C28.8267 37 26.7533 36.58 24.78 35.74C22.86 34.9267 21.1633 33.7833 19.69 32.31C18.2167 30.8367 17.0733 29.14 16.26 27.22C15.42 25.2467 15 23.1733 15 21C15 20.72 15.0133 20.36 15.04 19.92C15.0667 19.6667 15.1767 19.45 15.37 19.27C15.5633 19.09 15.7867 19 16.04 19H19.58C19.7133 19 19.8267 19.0433 19.92 19.13C20.0133 19.2167 20.0667 19.32 20.08 19.44L20.14 20C20.34 21.4 20.74 22.7333 21.34 24C21.3933 24.1067 21.4067 24.2133 21.38 24.32C21.3533 24.4267 21.2933 24.5133 21.2 24.58L19.04 26.12C19.6933 27.6533 20.6133 29.0133 21.8 30.2C22.9867 31.3867 24.3467 32.3067 25.88 32.96L27.42 30.8C27.4867 30.7067 27.5733 30.6467 27.68 30.62C27.7867 30.5933 27.8933 30.6067 28 30.66C29.2667 31.26 30.6 31.66 32 31.86L32.56 31.92C32.68 31.9333 32.7833 31.9867 32.87 32.08C32.9567 32.1733 33 32.2867 33 32.42Z" fill="#AF3322"/>
</svg>
