<svg width="64" height="52" viewBox="0 0 64 52" fill="none" xmlns="http://www.w3.org/2000/svg">
<path d="M0 28C0 14.7452 10.7452 4 24 4C37.2548 4 48 14.7452 48 28C48 41.2548 37.2548 52 24 52C10.7452 52 0 41.2548 0 28Z" fill="#AF3322" fill-opacity="0.1"/>
<path d="M15 19H33C33.28 19 33.5167 19.0967 33.71 19.29C33.9033 19.4833 34 19.72 34 20V36C34 36.28 33.9033 36.5167 33.71 36.71C33.5167 36.9033 33.28 37 33 37H15C14.72 37 14.4833 36.9033 14.29 36.71C14.0967 36.5167 14 36.28 14 36V20C14 19.72 14.0967 19.4833 14.29 19.29C14.4833 19.0967 14.72 19 15 19ZM24.06 27.68L17.64 22.24L16.36 23.76L24.08 30.32L31.66 23.76L30.34 22.24L24.06 27.68Z" fill="#AF3322"/>
</svg>
