<svg width="52" height="52" viewBox="0 0 52 52" fill="none" xmlns="http://www.w3.org/2000/svg">
<path d="M0 26C0 12.7452 10.7452 2 24 2C37.2548 2 48 12.7452 48 26C48 39.2548 37.2548 50 24 50C10.7452 50 0 39.2548 0 26Z" fill="#AF3322" fill-opacity="0.1"/>
<path d="M29.86 30.4999L23.5 36.8599L17.14 30.4999C15.98 29.3532 15.2 27.9932 14.8 26.4199C14.4 24.8999 14.4 23.3799 14.8 21.8599C15.2 20.2865 15.9767 18.9232 17.13 17.7699C18.2833 16.6165 19.6467 15.8332 21.22 15.4199C22.74 15.0332 24.26 15.0332 25.78 15.4199C27.3533 15.8332 28.7167 16.6165 29.87 17.7699C31.0233 18.9232 31.8 20.2865 32.2 21.8599C32.6 23.3799 32.6 24.8999 32.2 26.4199C31.8 27.9932 31.02 29.3532 29.86 30.4999ZM23.5 28.1399C24.22 28.1399 24.8867 27.9599 25.5 27.5999C26.1133 27.2399 26.6 26.7532 26.96 26.1399C27.32 25.5265 27.5 24.8565 27.5 24.1299C27.5 23.4032 27.32 22.7365 26.96 22.1299C26.6 21.5232 26.1133 21.0399 25.5 20.6799C24.8867 20.3199 24.22 20.1399 23.5 20.1399C22.78 20.1399 22.1133 20.3199 21.5 20.6799C20.8867 21.0399 20.4 21.5232 20.04 22.1299C19.68 22.7365 19.5 23.4032 19.5 24.1299C19.5 24.8565 19.68 25.5265 20.04 26.1399C20.4 26.7532 20.8867 27.2399 21.5 27.5999C22.1133 27.9599 22.78 28.1399 23.5 28.1399ZM23.5 26.1399C23.14 26.1399 22.8067 26.0499 22.5 25.8699C22.1933 25.6899 21.95 25.4465 21.77 25.1399C21.59 24.8332 21.5 24.4999 21.5 24.1399C21.5 23.7799 21.59 23.4465 21.77 23.1399C21.95 22.8332 22.1933 22.5899 22.5 22.4099C22.8067 22.2299 23.14 22.1399 23.5 22.1399C23.86 22.1399 24.1933 22.2299 24.5 22.4099C24.8067 22.5899 25.05 22.8332 25.23 23.1399C25.41 23.4465 25.5 23.7799 25.5 24.1399C25.5 24.4999 25.41 24.8332 25.23 25.1399C25.05 25.4465 24.8067 25.6899 24.5 25.8699C24.1933 26.0499 23.86 26.1399 23.5 26.1399Z" fill="#AF3322"/>
</svg>
