<svg width="35" height="22" viewBox="0 0 35 22" fill="none" xmlns="http://www.w3.org/2000/svg">
<path d="M3.17943 2.72688H19.5307C19.785 2.72688 20 2.81475 20.1756 2.99048C20.3513 3.16621 20.4391 3.38133 20.4391 3.63584V18.1792C20.4391 18.4337 20.3513 18.6489 20.1756 18.8246C20 19.0003 19.785 19.0882 19.5307 19.0882H3.17943C2.92508 19.0882 2.71009 19.0003 2.53447 18.8246C2.35884 18.6489 2.27103 18.4337 2.27103 18.1792V3.63584C2.27103 3.38133 2.35884 3.16621 2.53447 2.99048C2.71009 2.81475 2.92508 2.72688 3.17943 2.72688ZM11.4096 10.6167L5.57761 5.67192L4.41486 7.05354L11.4277 13.0163L18.3134 7.05354L17.1143 5.67192L11.4096 10.6167Z" fill="white"/>
</svg>
