<svg width="35" height="22" viewBox="0 0 35 22" fill="none" xmlns="http://www.w3.org/2000/svg">
<path d="M19.5307 14.9251V18.1429C19.5307 18.3731 19.4489 18.5761 19.2854 18.7519C19.1219 18.9276 18.9251 19.0276 18.6949 19.0518C18.2952 19.0761 17.9682 19.0882 17.7139 19.0882C15.7396 19.0882 13.8562 18.7064 12.0636 17.9429C10.3195 17.2036 8.77821 16.1644 7.43983 14.8252C6.10145 13.486 5.06285 11.9437 4.32402 10.1985C3.56096 8.40486 3.17943 6.52028 3.17943 4.5448C3.17943 4.2903 3.19154 3.96307 3.21576 3.56313C3.23999 3.33286 3.33991 3.13592 3.51554 2.9723C3.69116 2.80869 3.89404 2.72688 4.12417 2.72688H7.33991C7.46103 2.72688 7.56398 2.76627 7.64877 2.84505C7.73355 2.92382 7.782 3.01775 7.79411 3.12683L7.84861 3.63584C8.03029 4.90839 8.39366 6.12034 8.9387 7.27169C8.98714 7.36865 8.99926 7.4656 8.97503 7.56256C8.95081 7.65951 8.8963 7.73829 8.81152 7.79889L6.84937 9.19869C7.44286 10.5924 8.27859 11.8286 9.35656 12.9072C10.4345 13.9859 11.67 14.8221 13.0628 15.416L14.4618 13.4526C14.5223 13.3678 14.6011 13.3133 14.698 13.289C14.7949 13.2648 14.8918 13.2769 14.9887 13.3254C16.1393 13.8707 17.3505 14.2343 18.6223 14.4161L19.131 14.4707C19.24 14.4828 19.3338 14.5313 19.4126 14.6161C19.4913 14.7009 19.5307 14.8039 19.5307 14.9251Z" fill="white"/>
</svg>
