<svg width="35" height="22" viewBox="0 0 35 22" fill="none" xmlns="http://www.w3.org/2000/svg">
<path d="M11.355 19.9971C10.1196 19.9971 8.9387 19.7608 7.81228 19.2882C6.73431 18.8276 5.77443 18.1762 4.93265 17.3339C4.09086 16.4916 3.43984 15.5311 2.97958 14.4525C2.50721 13.3254 2.27103 12.1437 2.27103 10.9075C2.27103 9.67135 2.50721 8.4897 2.97958 7.36258C3.43984 6.28395 4.09086 5.32348 4.93265 4.48118C5.77443 3.63887 6.73431 2.98745 7.81228 2.52691C8.9387 2.05425 10.1196 1.81792 11.355 1.81792C12.5905 1.81792 13.7714 2.05425 14.8978 2.52691C15.9758 2.98745 16.9357 3.63887 17.7774 4.48118C18.6192 5.32348 19.2703 6.28395 19.7305 7.36258C20.2029 8.4897 20.4391 9.67135 20.4391 10.9075C20.4391 12.1437 20.2029 13.3254 19.7305 14.4525C19.2703 15.5311 18.6192 16.4916 17.7774 17.3339C16.9357 18.1762 15.9758 18.8276 14.8978 19.2882C13.7714 19.7608 12.5905 19.9971 11.355 19.9971ZM12.2635 10.9075V6.36273H10.4466V12.7255H15.8971V10.9075H12.2635Z" fill="white"/>
</svg>
