<svg width="33" height="24" viewBox="0 0 33 24" fill="none" xmlns="http://www.w3.org/2000/svg">
<path d="M16.4872 3.99931C16.767 3.99931 17.0035 4.09596 17.1967 4.28926C17.3899 4.48256 17.4864 4.71918 17.4864 4.99913V9.19839L22.7024 5.55903C22.809 5.47905 22.9322 5.44905 23.0721 5.46905C23.212 5.48904 23.3152 5.55903 23.3819 5.67901C23.4485 5.759 23.4818 5.85231 23.4818 5.95896V18.0368C23.4818 18.1701 23.4318 18.2868 23.3319 18.3868C23.232 18.4867 23.1154 18.5367 22.9822 18.5367C22.8756 18.5367 22.7823 18.5034 22.7024 18.4367L17.4864 14.7974V18.9966C17.4864 19.2766 17.3899 19.5132 17.1967 19.7065C17.0035 19.8998 16.767 19.9965 16.4872 19.9965H2.4981C2.21832 19.9965 1.98184 19.8998 1.78865 19.7065C1.59547 19.5132 1.49888 19.2766 1.49888 18.9966V4.99913C1.49888 4.71918 1.59547 4.48256 1.78865 4.28926C1.98184 4.09596 2.21832 3.99931 2.4981 3.99931H16.4872ZM15.488 5.99895H3.49732V17.9968H15.488V5.99895ZM7.89391 8.81845C7.97384 8.81845 8.04712 8.84512 8.11374 8.89844L12.4504 11.6579C12.5436 11.7246 12.6036 11.8113 12.6302 11.9179C12.6569 12.0246 12.6435 12.1245 12.5903 12.2178C12.5503 12.2578 12.5037 12.2978 12.4504 12.3378L8.11374 15.0973C8.02047 15.164 7.92055 15.184 7.81397 15.1573C7.70738 15.1307 7.62079 15.0707 7.55417 14.9774C7.5142 14.9107 7.49422 14.844 7.49422 14.7774V9.21838C7.49422 9.11173 7.53419 9.01842 7.61412 8.93843C7.69406 8.85845 7.78732 8.81845 7.89391 8.81845ZM21.4833 8.83845L17.4864 11.638V12.3578L21.4833 15.1573V8.83845Z" fill="white"/>
</svg>
