<svg width="28" height="28" viewBox="0 0 28 28" fill="none" xmlns="http://www.w3.org/2000/svg">
<path d="M10.9597 17.92C11.34 18.2187 11.4053 18.7693 11.1067 19.1497C10.934 19.369 10.6773 19.4833 10.4183 19.4833C10.2293 19.4833 10.038 19.4215 9.87817 19.2967C8.23433 18.0052 7.29167 16.0743 7.29167 14C7.29167 11.9257 8.23433 9.996 9.87817 8.70333C10.2573 8.4035 10.8068 8.47 11.1067 8.85033C11.4053 9.2295 11.34 9.78017 10.9597 10.0788C9.74167 11.0378 9.04167 12.4658 9.04167 14C9.04167 15.5342 9.7405 16.9622 10.9597 17.92ZM18.123 8.70333C17.7438 8.4035 17.1932 8.47 16.8945 8.85033C16.5958 9.2295 16.6612 9.78017 17.0415 10.0788C18.2595 11.0378 18.9595 12.4658 18.9595 14C18.9595 15.5342 18.2607 16.9622 17.0415 17.92C16.6612 18.2187 16.5958 18.7693 16.8945 19.1497C17.0672 19.369 17.3238 19.4833 17.5828 19.4833C17.7718 19.4833 17.9632 19.4215 18.123 19.2967C19.7668 18.0052 20.7095 16.0743 20.7095 14C20.7095 11.9257 19.7668 9.996 18.123 8.70333ZM4.375 14C4.375 11.3027 5.5125 8.7185 7.49583 6.91133C7.854 6.58583 7.87967 6.03283 7.553 5.67583C7.22633 5.31767 6.67333 5.292 6.3175 5.61867C3.97017 7.756 2.625 10.8115 2.625 14C2.625 17.1885 3.97017 20.244 6.3175 22.3825C6.4855 22.5353 6.6955 22.61 6.90667 22.61C7.14467 22.61 7.38033 22.5143 7.553 22.3242C7.8785 21.9672 7.85283 21.4142 7.49583 21.0875C5.5125 19.2803 4.375 16.6973 4.375 14ZM21.6825 5.61867C21.3267 5.29317 20.7737 5.31883 20.447 5.67583C20.1215 6.03283 20.1472 6.58583 20.5042 6.91133C22.4875 8.7185 23.625 11.3015 23.625 14C23.625 16.6985 22.4875 19.2803 20.5042 21.0875C20.146 21.413 20.1203 21.9672 20.447 22.3242C20.6197 22.5143 20.8565 22.61 21.0933 22.61C21.3045 22.61 21.5145 22.5353 21.6825 22.3825C24.0298 20.244 25.375 17.1897 25.375 14C25.375 10.8103 24.0298 7.756 21.6825 5.61867ZM16.0417 14C16.0417 15.1258 15.1258 16.0417 14 16.0417C12.8742 16.0417 11.9583 15.1258 11.9583 14C11.9583 12.8742 12.8742 11.9583 14 11.9583C15.1258 11.9583 16.0417 12.8742 16.0417 14ZM14.2917 14C14.2917 13.839 14.161 13.7083 14 13.7083C13.839 13.7083 13.7083 13.839 13.7083 14C13.7083 14.3208 14.2917 14.3208 14.2917 14Z" fill="white"/>
</svg>
