<svg width="64" height="64" viewBox="0 0 64 64" fill="none" xmlns="http://www.w3.org/2000/svg">
<path d="M0 32C0 14.3269 14.3269 0 32 0C49.6731 0 64 14.3269 64 32C64 49.6731 49.6731 64 32 64C14.3269 64 0 49.6731 0 32Z" fill="#AF3322" fill-opacity="0.1"/>
<path d="M37 22.74C38 22.74 38.92 23 39.76 23.52C40.6 24.04 41.26 24.7467 41.74 25.64C42.2467 26.5733 42.5 27.6067 42.5 28.74C42.5 30.2867 42.14 31.7733 41.42 33.2C40.8067 34.4133 39.9333 35.58 38.8 36.7C37.92 37.58 36.8733 38.44 35.66 39.28C34.98 39.7467 34.0867 40.3067 32.98 40.96L32.5 41.24L32.02 40.96C30.86 40.28 29.9267 39.6933 29.22 39.2C27.9533 38.32 26.8667 37.4133 25.96 36.48C24.8133 35.28 23.9467 34.04 23.36 32.76L21.5 32.74V30.74L22.72 30.76C22.5733 30.0933 22.5 29.42 22.5 28.74C22.5 27.6067 22.7533 26.5733 23.26 25.64C23.74 24.7467 24.4 24.04 25.24 23.52C26.08 23 27 22.74 28 22.74C28.8667 22.74 29.7267 22.9533 30.58 23.38C31.3 23.7267 31.94 24.18 32.5 24.74C33.06 24.18 33.7 23.7267 34.42 23.38C35.2733 22.9533 36.1333 22.74 37 22.74ZM37 24.74C36.4667 24.74 35.9267 24.87 35.38 25.13C34.8333 25.39 34.3467 25.7333 33.92 26.16L32.5 27.58L31.08 26.16C30.6533 25.7333 30.1667 25.39 29.62 25.13C29.0733 24.87 28.5333 24.74 28 24.74C27.36 24.74 26.7733 24.9133 26.24 25.26C25.7067 25.6067 25.2833 26.0833 24.97 26.69C24.6567 27.2967 24.5 27.9867 24.5 28.76C24.5 29.4267 24.5867 30.0933 24.76 30.76L26.94 30.74L29 27.3L32 32.3L32.94 30.74H37.5V32.74H34.06L32 36.2L29 31.2L28.06 32.74L25.6 32.76C26.3733 34.0933 27.5533 35.3933 29.14 36.66C29.8467 37.22 30.6533 37.7867 31.56 38.36C31.84 38.5333 32.1533 38.72 32.5 38.92C32.8467 38.72 33.16 38.5333 33.44 38.36C34.3467 37.7867 35.1533 37.22 35.86 36.66C37.38 35.4467 38.5267 34.2 39.3 32.92C40.1 31.5867 40.5 30.2 40.5 28.76C40.5 27.9867 40.3467 27.2933 40.04 26.68C39.7333 26.0667 39.3133 25.5933 38.78 25.26C38.2467 24.9267 37.6533 24.7533 37 24.74Z" fill="#AF3322"/>
</svg>
