<svg width="33" height="24" viewBox="0 0 33 24" fill="none" xmlns="http://www.w3.org/2000/svg">
<path d="M12.4903 20.0364L17.4264 15.0773C18.3324 14.1841 18.9453 13.131 19.265 11.9179C19.5714 10.7314 19.5714 9.54495 19.265 8.35849C18.9453 7.14537 18.3357 6.08889 17.4364 5.18905C16.5371 4.28921 15.4813 3.67932 14.2689 3.35938C13.0831 3.05277 11.8974 3.05277 10.7117 3.35938C9.49926 3.67932 8.44342 4.28921 7.54412 5.18905C6.64481 6.08889 6.03529 7.14537 5.71554 8.35849C5.40911 9.54495 5.40911 10.7314 5.71554 11.9179C6.03529 13.131 6.64815 14.1841 7.55411 15.0773L12.4903 20.0364ZM12.4903 22.8559L6.13521 16.497C4.97611 15.3506 4.19672 13.9908 3.79703 12.4178C3.39734 10.898 3.39734 9.37831 3.79703 7.85858C4.19672 6.28553 4.97278 4.92243 6.12522 3.76931C7.27766 2.61618 8.63993 1.83298 10.212 1.41972C11.7309 1.03312 13.2497 1.03312 14.7685 1.41972C16.3406 1.83298 17.7029 2.61618 18.8553 3.76931C20.0078 4.92243 20.7838 6.28553 21.1835 7.85858C21.5832 9.37831 21.5832 10.898 21.1835 12.4178C20.7838 13.9908 20.0044 15.3506 18.8453 16.497L12.4903 22.8559ZM12.4903 12.1378C12.85 12.1378 13.1831 12.0478 13.4895 11.8679C13.7959 11.6879 14.0391 11.4446 14.2189 11.138C14.3988 10.8314 14.4887 10.4981 14.4887 10.1382C14.4887 9.77824 14.3988 9.44496 14.2189 9.13835C14.0391 8.83174 13.7959 8.58845 13.4895 8.40848C13.1831 8.22851 12.85 8.13853 12.4903 8.13853C12.1305 8.13853 11.7975 8.22851 11.491 8.40848C11.1846 8.58845 10.9415 8.83174 10.7616 9.13835C10.5818 9.44496 10.4918 9.77824 10.4918 10.1382C10.4918 10.4981 10.5818 10.8314 10.7616 11.138C10.9415 11.4446 11.1846 11.6879 11.491 11.8679C11.7975 12.0478 12.1305 12.1378 12.4903 12.1378ZM12.4903 14.1375C11.7708 14.1375 11.1047 13.9575 10.4918 13.5976C9.87897 13.2376 9.39268 12.751 9.03296 12.1378C8.67324 11.5246 8.49338 10.8547 8.49338 10.1282C8.49338 9.40164 8.67324 8.73509 9.03296 8.12853C9.39268 7.52197 9.87897 7.03872 10.4918 6.67879C11.1047 6.31885 11.7708 6.13889 12.4903 6.13889C13.2097 6.13889 13.8759 6.31885 14.4887 6.67879C15.1016 7.03872 15.5879 7.52197 15.9476 8.12853C16.3073 8.73509 16.4872 9.40164 16.4872 10.1282C16.4872 10.8547 16.3073 11.5246 15.9476 12.1378C15.5879 12.751 15.1016 13.2376 14.4887 13.5976C13.8759 13.9575 13.2097 14.1375 12.4903 14.1375Z" fill="#AF3322"/>
</svg>
