<svg width="64" height="64" viewBox="0 0 64 64" fill="none" xmlns="http://www.w3.org/2000/svg">
<path d="M0 32C0 14.3269 14.3269 0 32 0C49.6731 0 64 14.3269 64 32C64 49.6731 49.6731 64 32 64C14.3269 64 0 49.6731 0 32Z" fill="#AF3322" fill-opacity="0.1"/>
<path d="M21.5 42.5C21.5 41.0467 21.8667 39.7 22.6 38.46C23.3067 37.26 24.26 36.3067 25.46 35.6C26.7 34.8667 28.0467 34.5 29.5 34.5C30.9533 34.5 32.3 34.8667 33.54 35.6C34.74 36.3067 35.6933 37.26 36.4 38.46C37.1333 39.7 37.5 41.0467 37.5 42.5H35.5C35.5 41.42 35.2267 40.4133 34.68 39.48C34.1467 38.5733 33.4267 37.8533 32.52 37.32C31.5867 36.7733 30.58 36.5 29.5 36.5C28.42 36.5 27.4133 36.7733 26.48 37.32C25.5733 37.8533 24.8533 38.5733 24.32 39.48C23.7733 40.4133 23.5 41.42 23.5 42.5H21.5ZM29.5 33.5C28.4067 33.5 27.4 33.2267 26.48 32.68C25.5733 32.1467 24.8533 31.4267 24.32 30.52C23.7733 29.6 23.5 28.5933 23.5 27.5C23.5 26.4067 23.7733 25.4 24.32 24.48C24.8533 23.5733 25.5733 22.8533 26.48 22.32C27.4 21.7733 28.4067 21.5 29.5 21.5C30.5933 21.5 31.6 21.7733 32.52 22.32C33.4267 22.8533 34.1467 23.5733 34.68 24.48C35.2267 25.4 35.5 26.4067 35.5 27.5C35.5 28.5933 35.2267 29.6 34.68 30.52C34.1467 31.4267 33.4267 32.1467 32.52 32.68C31.6 33.2267 30.5933 33.5 29.5 33.5ZM29.5 31.5C30.22 31.5 30.8867 31.32 31.5 30.96C32.1133 30.6 32.6 30.1133 32.96 29.5C33.32 28.8867 33.5 28.22 33.5 27.5C33.5 26.78 33.32 26.1133 32.96 25.5C32.6 24.8867 32.1133 24.4 31.5 24.04C30.8867 23.68 30.22 23.5 29.5 23.5C28.78 23.5 28.1133 23.68 27.5 24.04C26.8867 24.4 26.4 24.8867 26.04 25.5C25.68 26.1133 25.5 26.78 25.5 27.5C25.5 28.22 25.68 28.8867 26.04 29.5C26.4 30.1133 26.8867 30.6 27.5 30.96C28.1133 31.32 28.78 31.5 29.5 31.5ZM37.78 35.2C38.7133 35.6133 39.5367 36.19 40.25 36.93C40.9633 37.67 41.5133 38.5067 41.9 39.44C42.3 40.4133 42.5 41.4333 42.5 42.5H40.5C40.5 41.3 40.1733 40.2 39.52 39.2C38.88 38.2267 38.0267 37.5 36.96 37.02L37.78 35.2ZM37.1 23.92C38.1133 24.3333 38.9333 25 39.56 25.92C40.1867 26.84 40.5 27.8667 40.5 29C40.5 29.9467 40.28 30.8233 39.84 31.63C39.4 32.4367 38.7967 33.0933 38.03 33.6C37.2633 34.1067 36.42 34.4 35.5 34.48V32.46C36.06 32.38 36.57 32.1767 37.03 31.85C37.49 31.5233 37.85 31.11 38.11 30.61C38.37 30.11 38.5 29.5733 38.5 29C38.5 28.32 38.32 27.7 37.96 27.14C37.6 26.58 37.1267 26.1533 36.54 25.86L37.1 23.92Z" fill="#AF3322"/>
</svg>
