<svg width="64" height="64" viewBox="0 0 64 64" fill="none" xmlns="http://www.w3.org/2000/svg">
<path d="M0 32C0 14.3269 14.3269 0 32 0C49.6731 0 64 14.3269 64 32C64 49.6731 49.6731 64 32 64C14.3269 64 0 49.6731 0 32Z" fill="#AF3322" fill-opacity="0.1"/>
<path d="M33 40V42H31V40H23C22.72 40 22.4833 39.9033 22.29 39.71C22.0967 39.5167 22 39.28 22 39V23C22 22.72 22.0967 22.4833 22.29 22.29C22.4833 22.0967 22.72 22 23 22H29C29.5867 22 30.14 22.12 30.66 22.36C31.18 22.6 31.6267 22.9333 32 23.36C32.3733 22.9333 32.82 22.6 33.34 22.36C33.86 22.12 34.4133 22 35 22H41C41.28 22 41.5167 22.0967 41.71 22.29C41.9033 22.4833 42 22.72 42 23V39C42 39.28 41.9033 39.5167 41.71 39.71C41.5167 39.9033 41.28 40 41 40H33ZM40 38V24H35C34.64 24 34.3067 24.09 34 24.27C33.6933 24.45 33.45 24.6933 33.27 25C33.09 25.3067 33 25.64 33 26V38H40ZM31 38V26C31 25.64 30.91 25.3067 30.73 25C30.55 24.6933 30.3067 24.45 30 24.27C29.6933 24.09 29.36 24 29 24H24V38H31Z" fill="#AF3322"/>
</svg>
