<svg width="34" height="48" viewBox="0 0 34 48" fill="none" xmlns="http://www.w3.org/2000/svg">
<path d="M18.0323 10.6668C19.3838 10.6668 20.3619 10.6757 20.9665 10.6935L22.1669 10.7468C23.4117 10.8002 24.4876 11.0046 25.3946 11.3602C26.3015 11.7157 27.0929 12.2313 27.7687 12.9068C28.4444 13.5824 28.9601 14.3735 29.3158 15.2802C29.6715 16.1868 29.876 17.2624 29.9293 18.5068L29.9827 19.7068C30.0005 20.3291 30.0093 21.3068 30.0093 22.6402V25.3602C30.0093 26.7113 30.0005 27.6891 29.9827 28.2935L29.9293 29.4935C29.876 30.7379 29.6715 31.8135 29.3158 32.7202C28.9601 33.6268 28.4444 34.4179 27.7687 35.0935C27.0929 35.7691 26.3015 36.2846 25.3946 36.6402C24.4876 36.9957 23.4117 37.2002 22.1669 37.2535L20.9665 37.3068C20.3441 37.3246 19.366 37.3335 18.0323 37.3335H15.3114C13.9599 37.3335 12.9818 37.3246 12.3772 37.3068L11.1768 37.2535C9.93197 37.2002 8.85608 36.9957 7.94913 36.6402C7.04218 36.2846 6.25082 35.7691 5.57505 35.0935C4.89928 34.4179 4.38357 33.6268 4.0279 32.7202C3.67223 31.8135 3.46773 30.7379 3.41438 29.4935L3.36103 28.2935C3.34324 27.6713 3.33435 26.6935 3.33435 25.3602V22.6402C3.33435 21.2891 3.34324 20.3113 3.36103 19.7068L3.41438 18.5068C3.46773 17.2624 3.67223 16.1868 4.0279 15.2802C4.38357 14.3735 4.89928 13.5824 5.57505 12.9068C6.25082 12.2313 7.04218 11.7157 7.94913 11.3602C8.85608 11.0046 9.93197 10.8002 11.1768 10.7468L12.3772 10.6935C12.9996 10.6757 13.9777 10.6668 15.3114 10.6668H18.0323ZM16.6719 17.3335C15.4626 17.3335 14.3467 17.6313 13.3241 18.2268C12.3016 18.8224 11.4925 19.6313 10.8967 20.6535C10.301 21.6757 10.0031 22.7913 10.0031 24.0002C10.0031 25.2091 10.301 26.3246 10.8967 27.3468C11.4925 28.3691 12.3016 29.1779 13.3241 29.7735C14.3467 30.3691 15.4626 30.6668 16.6719 30.6668C17.8811 30.6668 18.997 30.3691 20.0196 29.7735C21.0421 29.1779 21.8512 28.3691 22.447 27.3468C23.0427 26.3246 23.3406 25.2091 23.3406 24.0002C23.3406 22.7913 23.0427 21.6757 22.447 20.6535C21.8512 19.6313 21.0421 18.8224 20.0196 18.2268C18.997 17.6313 17.8811 17.3335 16.6719 17.3335ZM16.6719 20.0002C17.401 20.0002 18.0723 20.1779 18.6858 20.5335C19.2993 20.8891 19.7839 21.3735 20.1396 21.9868C20.4953 22.6002 20.6731 23.2713 20.6731 24.0002C20.6731 24.7291 20.4953 25.4002 20.1396 26.0135C19.7839 26.6268 19.2993 27.1113 18.6858 27.4668C18.0723 27.8224 17.401 28.0002 16.6719 28.0002C15.9427 28.0002 15.2714 27.8224 14.6579 27.4668C14.0444 27.1113 13.5598 26.6268 13.2041 26.0135C12.8484 25.4002 12.6706 24.7291 12.6706 24.0002C12.6706 23.2713 12.8484 22.6002 13.2041 21.9868C13.5598 21.3735 14.0444 20.8891 14.6579 20.5335C15.2714 20.1779 15.9427 20.0002 16.6719 20.0002ZM23.6607 15.3335C23.2161 15.3335 22.8293 15.4979 22.5003 15.8268C22.1713 16.1557 22.0068 16.5468 22.0068 17.0002C22.0068 17.4535 22.1713 17.8446 22.5003 18.1735C22.8293 18.5024 23.2206 18.6668 23.674 18.6668C24.1275 18.6668 24.5187 18.5024 24.8477 18.1735C25.1767 17.8446 25.3412 17.4535 25.3412 17.0002C25.3412 16.5468 25.1767 16.1557 24.8477 15.8268C24.5187 15.4979 24.1231 15.3335 23.6607 15.3335Z" fill="white"/>
</svg>
