<svg width="34" height="40" viewBox="0 0 34 40" fill="none" xmlns="http://www.w3.org/2000/svg">
<path d="M19.0192 26.0002H22.3536L23.6874 20.6668H19.0192V18.0002C19.0192 17.3957 19.0459 16.9602 19.0993 16.6935C19.206 16.2668 19.4371 15.9379 19.7928 15.7068C20.2196 15.4579 20.8509 15.3335 21.6867 15.3335H23.6874V10.8535C23.385 10.8179 22.9049 10.7824 22.2469 10.7468C21.4289 10.6935 20.6375 10.6668 19.8728 10.6668C18.6458 10.6668 17.5654 10.9113 16.6318 11.4002C15.6982 11.8891 14.9824 12.5868 14.4845 13.4935C13.951 14.4713 13.6842 15.6179 13.6842 16.9335V20.6668H9.68298V26.0002H13.6842V37.3335H19.0192V26.0002Z" fill="white"/>
</svg>
